<?xml version="1.0"?>
<svg xmlns="http://www.w3.org/2000/svg" width="1400" height="1600" viewBox="0 0 1400 1600">
  <title>SAILRATINGS Sun Fast 3300 POLAR SWEEP</title>
  <desc>Rule-conscious Sun Fast 3300 livery using a single global artwork clipped into mainsail, jib and hull.</desc>
  <defs>
    <clipPath id="clip-main"><path d="M 659.59,1137.98 L 578.01,205.54 L 504.19,212 L 328.87,1137.98 L 659.59,1137.98 Z"></path></clipPath>
    <clipPath id="clip-jib"><path d="M 656.38,414.79 L 992.16,1200.12 Q 851.6,1216.5 619.94,1150.2 C 644.9,916.2 658.16,643.2 656.38,414.79 Z"></path></clipPath>
    <clipPath id="clip-hull"><path d="M 290,1215.72 C 383.6,1211.04 531.8,1200.12 665.57,1206.36 C 793.1,1202.46 964.7,1198.56 1069.22,1190.76 L 1069.22,1242.24 C 1024.76,1273.44 964.7,1295.28 892.16,1306.2 C 812.6,1317.12 707.3,1332.72 613.7,1329.6 C 527.9,1334.28 418.7,1320.24 307.16,1298.4 L 290,1284.36 Z"></path></clipPath>
    
  </defs>
  <rect width="1400" height="1600" fill="#F3F1EC"></rect>
  
    <g id="title-block">
      <text x="68" y="66" class="label ink" font-size="16">SAILRATINGS · SUN FAST 3300</text>
      <text x="68" y="108" class="display ink" font-size="43">POLAR SWEEP</text>
      <text x="68" y="140" class="body ink" font-size="16">A mast-keel origin projects a navigational field through hull and sails.</text>
      <text x="68" y="168" class="data marine" font-size="13">ANDRIEU / VERDIER GEOMETRY · 5° MAST RAKE · NO SYNTHETIC RATINGS</text>
      
    </g>
  
    <g id="base-surfaces">
      
    <g id="appendages">
      <path d="M 397.64,1295.28 L 430.4,1303.08 L 422.6,1374.84 Q 408.56,1388.1 398.42,1372.5 Z" fill="#FF4119" opacity="0.72"></path>
      <path d="M 369.56,1293.72 L 410.12,1301.52 L 401.54,1385.76 Q 382.82,1402.14 370.34,1382.64 Z" fill="#FF4119"></path>
      <path d="M 576.26,1326.48 L 658.16,1329.6 L 631.64,1435.68 Q 603.56,1448.16 572.36,1433.34 Z" fill="#FF4119"></path>
    </g>
      <path d="M 290,1215.72 C 383.6,1211.04 531.8,1200.12 665.57,1206.36 C 793.1,1202.46 964.7,1198.56 1069.22,1190.76 L 1069.22,1242.24 C 1024.76,1273.44 964.7,1295.28 892.16,1306.2 C 812.6,1317.12 707.3,1332.72 613.7,1329.6 C 527.9,1334.28 418.7,1320.24 307.16,1298.4 L 290,1284.36 Z" fill="#07100F"></path>
      <path d="M 659.59,1137.98 L 578.01,205.54 L 504.19,212 L 328.87,1137.98 L 659.59,1137.98 Z" fill="#07100F"></path>
      <path d="M 656.38,414.79 L 992.16,1200.12 Q 851.6,1216.5 619.94,1150.2 C 644.9,916.2 658.16,643.2 656.38,414.79 Z" fill="#07100F"></path>
    </g>
  
    <g id="cross-surface-livery">
      <g clip-path="url(#clip-hull)"><g id="polar-sweep-pattern"><line x1="623.84" y1="1287.48" x2="-566.57" y2="968.51" stroke="#0C5F5C" stroke-width="1.45" opacity="0.66"></line><line x1="623.84" y1="1287.48" x2="-407.4" y2="883.34" stroke="#0C5F5C" stroke-width="1.45" opacity="0.66"></line><line x1="623.84" y1="1287.48" x2="-355.92" y2="770.91" stroke="#0C5F5C" stroke-width="1.45" opacity="0.66"></line><line x1="623.84" y1="1287.48" x2="-292.23" y2="664.92" stroke="#0C5F5C" stroke-width="1.45" opacity="0.66"></line><line x1="623.84" y1="1287.48" x2="-311.89" y2="485.47" stroke="#0C5F5C" stroke-width="1.45" opacity="0.66"></line><line x1="623.84" y1="1287.48" x2="-131.54" y2="477.43" stroke="#0C5F5C" stroke-width="1.45" opacity="0.66"></line><line x1="623.84" y1="1287.48" x2="-36.54" y2="398.28" stroke="#0C5F5C" stroke-width="1.45" opacity="0.66"></line><line x1="623.84" y1="1287.48" x2="66.7" y2="330.21" stroke="#0C5F5C" stroke-width="1.45" opacity="0.66"></line><line x1="623.84" y1="1287.48" x2="126.51" y2="159.88" stroke="#0C5F5C" stroke-width="1.45" opacity="0.66"></line><line x1="623.84" y1="1287.48" x2="292.62" y2="230.56" stroke="#0C5F5C" stroke-width="1.45" opacity="0.66"></line><line x1="623.84" y1="1287.48" x2="412.5" y2="200.23" stroke="#0C5F5C" stroke-width="1.45" opacity="0.66"></line><line x1="623.84" y1="1287.48" x2="535.01" y2="183.45" stroke="#0C5F5C" stroke-width="1.45" opacity="0.66"></line><line x1="623.84" y1="1287.48" x2="662.55" y2="55.69" stroke="#0C5F5C" stroke-width="1.45" opacity="0.66"></line><line x1="623.84" y1="1287.48" x2="781.82" y2="191.2" stroke="#0C5F5C" stroke-width="1.45" opacity="0.66"></line><line x1="623.84" y1="1287.48" x2="903.03" y2="215.65" stroke="#0C5F5C" stroke-width="1.45" opacity="0.66"></line><line x1="623.84" y1="1287.48" x2="1020.77" y2="253.45" stroke="#0C5F5C" stroke-width="1.45" opacity="0.66"></line><line x1="623.84" y1="1287.48" x2="1190.99" y2="193.34" stroke="#0C5F5C" stroke-width="1.45" opacity="0.66"></line><line x1="623.84" y1="1287.48" x2="1239.99" y2="367.08" stroke="#0C5F5C" stroke-width="1.45" opacity="0.66"></line><line x1="623.84" y1="1287.48" x2="1338.75" y2="441.5" stroke="#2BA49E" stroke-width="10" opacity="0.95"></line><line x1="623.84" y1="1287.48" x2="1428.59" y2="526.46" stroke="#0C5F5C" stroke-width="1.45" opacity="0.66"></line><line x1="623.84" y1="1287.48" x2="1608.08" y2="545.8" stroke="#0C5F5C" stroke-width="1.45" opacity="0.66"></line><line x1="623.84" y1="1287.48" x2="1577.2" y2="723.67" stroke="#0C5F5C" stroke-width="1.45" opacity="0.66"></line><line x1="623.84" y1="1287.48" x2="1634.1" y2="833.45" stroke="#0C5F5C" stroke-width="1.45" opacity="0.66"></line><line x1="623.84" y1="1287.48" x2="1678.42" y2="948.89" stroke="#0C5F5C" stroke-width="1.45" opacity="0.66"></line><line x1="623.84" y1="1287.48" x2="1831.93" y2="1043.89" stroke="#0C5F5C" stroke-width="1.45" opacity="0.66"></line><line x1="623.84" y1="1287.48" x2="1727.23" y2="1190.95" stroke="#0C5F5C" stroke-width="1.45" opacity="0.66"></line><line x1="623.84" y1="1287.48" x2="1731.11" y2="1314.54" stroke="#0C5F5C" stroke-width="1.45" opacity="0.66"></line><line x1="623.84" y1="1287.48" x2="1721.19" y2="1437.8" stroke="#0C5F5C" stroke-width="1.45" opacity="0.66"></line><line x1="623.84" y1="1287.48" x2="1818.58" y2="1589.8" stroke="#0C5F5C" stroke-width="1.45" opacity="0.66"></line><line x1="623.84" y1="1287.48" x2="1660.62" y2="1677.18" stroke="#0C5F5C" stroke-width="1.45" opacity="0.66"></line><line x1="623.84" y1="1287.48" x2="1610.72" y2="1790.32" stroke="#0C5F5C" stroke-width="1.45" opacity="0.66"></line><line x1="623.84" y1="1287.48" x2="1548.52" y2="1897.19" stroke="#0C5F5C" stroke-width="1.45" opacity="0.66"></line><line x1="623.84" y1="1287.48" x2="1570.67" y2="2076.35" stroke="#0C5F5C" stroke-width="1.45" opacity="0.66"></line><circle cx="623.84" cy="1287.48" r="66.3" fill="none" stroke="#2BA49E" stroke-width="1.45" opacity="0.64"></circle><circle cx="623.84" cy="1287.48" r="133.38" fill="none" stroke="#2BA49E" stroke-width="1.45" opacity="0.64"></circle><circle cx="623.84" cy="1287.48" r="200.46" fill="none" stroke="#2BA49E" stroke-width="1.45" opacity="0.64"></circle><circle cx="623.84" cy="1287.48" r="267.54" fill="none" stroke="#2BA49E" stroke-width="1.45" opacity="0.64"></circle><circle cx="623.84" cy="1287.48" r="334.62" fill="none" stroke="#2BA49E" stroke-width="1.45" opacity="0.64"></circle><circle cx="623.84" cy="1287.48" r="401.7" fill="none" stroke="#2BA49E" stroke-width="1.45" opacity="0.64"></circle><circle cx="623.84" cy="1287.48" r="468.78" fill="none" stroke="#2BA49E" stroke-width="1.45" opacity="0.64"></circle><circle cx="623.84" cy="1287.48" r="535.86" fill="none" stroke="#2BA49E" stroke-width="1.45" opacity="0.64"></circle><circle cx="623.84" cy="1287.48" r="602.94" fill="none" stroke="#2BA49E" stroke-width="1.45" opacity="0.64"></circle><circle cx="623.84" cy="1287.48" r="670.02" fill="none" stroke="#2BA49E" stroke-width="1.45" opacity="0.64"></circle><circle cx="623.84" cy="1287.48" r="737.1" fill="none" stroke="#2BA49E" stroke-width="1.45" opacity="0.64"></circle><circle cx="623.84" cy="1287.48" r="804.18" fill="none" stroke="#2BA49E" stroke-width="1.45" opacity="0.64"></circle><g stroke="#F3F1EC" stroke-width="1.2" opacity="0.5"><line x1="243.36" y1="1185.53" x2="215.49" y2="1178.06"></line><line x1="252.76" y1="1155.35" x2="238.07" y2="1150.11"></line><line x1="264.56" y1="1126.01" x2="250.33" y2="1119.62"></line><line x1="278.66" y1="1097.72" x2="264.99" y2="1090.2"></line><line x1="294.99" y1="1070.65" x2="281.97" y2="1062.06"></line><line x1="313.44" y1="1044.97" x2="290.7" y2="1027.2"></line><line x1="333.89" y1="1020.86" x2="322.41" y2="1010.3"></line><line x1="356.21" y1="998.46" x2="345.61" y2="987.02"></line><line x1="380.25" y1="977.93" x2="370.6" y2="965.67"></line><line x1="405.86" y1="959.39" x2="397.23" y2="946.4"></line><line x1="432.87" y1="942.97" x2="418.88" y2="917.73"></line><line x1="461.12" y1="928.76" x2="454.67" y2="914.56"></line><line x1="490.41" y1="916.87" x2="485.13" y2="902.19"></line><line x1="520.56" y1="907.36" x2="516.47" y2="892.31"></line><line x1="551.38" y1="900.3" x2="548.51" y2="884.97"></line><line x1="582.67" y1="895.74" x2="579.65" y2="867.04"></line><line x1="614.22" y1="893.7" x2="613.84" y2="878.1"></line><line x1="645.83" y1="894.19" x2="646.7" y2="878.62"></line><line x1="677.3" y1="897.22" x2="679.42" y2="881.77"></line><line x1="708.42" y1="902.77" x2="711.77" y2="887.53"></line><line x1="739.01" y1="910.79" x2="747.44" y2="883.19"></line><line x1="768.84" y1="921.24" x2="774.59" y2="906.74"></line><line x1="797.75" y1="934.05" x2="804.64" y2="920.05"></line><line x1="825.53" y1="949.14" x2="833.52" y2="935.74"></line><line x1="852.02" y1="966.4" x2="861.06" y2="953.69"></line><line x1="877.03" y1="985.74" x2="895.58" y2="963.63"></line><line x1="900.42" y1="1007.01" x2="911.37" y2="995.91"></line><line x1="922.02" y1="1030.1" x2="933.83" y2="1019.9"></line><line x1="941.7" y1="1054.84" x2="954.29" y2="1045.63"></line><line x1="959.34" y1="1081.08" x2="972.62" y2="1072.91"></line><line x1="974.81" y1="1108.65" x2="1000.52" y2="1095.55"></line><line x1="988.02" y1="1137.38" x2="1002.44" y2="1131.43"></line><line x1="998.88" y1="1167.07" x2="1013.74" y2="1162.3"></line><line x1="1007.33" y1="1197.53" x2="1022.52" y2="1193.97"></line><line x1="1013.31" y1="1228.58" x2="1028.74" y2="1226.25"></line><line x1="1016.78" y1="1260" x2="1045.57" y2="1257.99"></line><line x1="1017.72" y1="1291.6" x2="1033.32" y2="1291.77"></line><line x1="1016.12" y1="1323.18" x2="1031.65" y2="1324.59"></line><line x1="1011.99" y1="1354.53" x2="1027.36" y2="1357.18"></line><line x1="1005.36" y1="1385.44" x2="1020.47" y2="1389.32"></line><line x1="996.28" y1="1415.72" x2="1023.57" y2="1425.12"></line><line x1="984.8" y1="1445.18" x2="999.09" y2="1451.42"></line></g><text x="211.92" y="1137.55" text-anchor="middle" class="data" font-size="11" fill="#F3F1EC" opacity="0.62">30°</text><text x="288.04" y="1005.71" text-anchor="middle" class="data" font-size="11" fill="#F3F1EC" opacity="0.62">45°</text><text x="404.66" y="907.85" text-anchor="middle" class="data" font-size="11" fill="#F3F1EC" opacity="0.62">60°</text><text x="547.72" y="855.78" text-anchor="middle" class="data" font-size="11" fill="#F3F1EC" opacity="0.62">75°</text><text x="699.96" y="855.78" text-anchor="middle" class="data" font-size="11" fill="#F3F1EC" opacity="0.62">90°</text><text x="843.02" y="907.85" text-anchor="middle" class="data" font-size="11" fill="#F3F1EC" opacity="0.62">120°</text></g></g>
      <g clip-path="url(#clip-jib)"><g id="polar-sweep-pattern"><line x1="623.84" y1="1287.48" x2="-566.57" y2="968.51" stroke="#0C5F5C" stroke-width="1.45" opacity="0.66"></line><line x1="623.84" y1="1287.48" x2="-407.4" y2="883.34" stroke="#0C5F5C" stroke-width="1.45" opacity="0.66"></line><line x1="623.84" y1="1287.48" x2="-355.92" y2="770.91" stroke="#0C5F5C" stroke-width="1.45" opacity="0.66"></line><line x1="623.84" y1="1287.48" x2="-292.23" y2="664.92" stroke="#0C5F5C" stroke-width="1.45" opacity="0.66"></line><line x1="623.84" y1="1287.48" x2="-311.89" y2="485.47" stroke="#0C5F5C" stroke-width="1.45" opacity="0.66"></line><line x1="623.84" y1="1287.48" x2="-131.54" y2="477.43" stroke="#0C5F5C" stroke-width="1.45" opacity="0.66"></line><line x1="623.84" y1="1287.48" x2="-36.54" y2="398.28" stroke="#0C5F5C" stroke-width="1.45" opacity="0.66"></line><line x1="623.84" y1="1287.48" x2="66.7" y2="330.21" stroke="#0C5F5C" stroke-width="1.45" opacity="0.66"></line><line x1="623.84" y1="1287.48" x2="126.51" y2="159.88" stroke="#0C5F5C" stroke-width="1.45" opacity="0.66"></line><line x1="623.84" y1="1287.48" x2="292.62" y2="230.56" stroke="#0C5F5C" stroke-width="1.45" opacity="0.66"></line><line x1="623.84" y1="1287.48" x2="412.5" y2="200.23" stroke="#0C5F5C" stroke-width="1.45" opacity="0.66"></line><line x1="623.84" y1="1287.48" x2="535.01" y2="183.45" stroke="#0C5F5C" stroke-width="1.45" opacity="0.66"></line><line x1="623.84" y1="1287.48" x2="662.55" y2="55.69" stroke="#0C5F5C" stroke-width="1.45" opacity="0.66"></line><line x1="623.84" y1="1287.48" x2="781.82" y2="191.2" stroke="#0C5F5C" stroke-width="1.45" opacity="0.66"></line><line x1="623.84" y1="1287.48" x2="903.03" y2="215.65" stroke="#0C5F5C" stroke-width="1.45" opacity="0.66"></line><line x1="623.84" y1="1287.48" x2="1020.77" y2="253.45" stroke="#0C5F5C" stroke-width="1.45" opacity="0.66"></line><line x1="623.84" y1="1287.48" x2="1190.99" y2="193.34" stroke="#0C5F5C" stroke-width="1.45" opacity="0.66"></line><line x1="623.84" y1="1287.48" x2="1239.99" y2="367.08" stroke="#0C5F5C" stroke-width="1.45" opacity="0.66"></line><line x1="623.84" y1="1287.48" x2="1338.75" y2="441.5" stroke="#2BA49E" stroke-width="10" opacity="0.95"></line><line x1="623.84" y1="1287.48" x2="1428.59" y2="526.46" stroke="#0C5F5C" stroke-width="1.45" opacity="0.66"></line><line x1="623.84" y1="1287.48" x2="1608.08" y2="545.8" stroke="#0C5F5C" stroke-width="1.45" opacity="0.66"></line><line x1="623.84" y1="1287.48" x2="1577.2" y2="723.67" stroke="#0C5F5C" stroke-width="1.45" opacity="0.66"></line><line x1="623.84" y1="1287.48" x2="1634.1" y2="833.45" stroke="#0C5F5C" stroke-width="1.45" opacity="0.66"></line><line x1="623.84" y1="1287.48" x2="1678.42" y2="948.89" stroke="#0C5F5C" stroke-width="1.45" opacity="0.66"></line><line x1="623.84" y1="1287.48" x2="1831.93" y2="1043.89" stroke="#0C5F5C" stroke-width="1.45" opacity="0.66"></line><line x1="623.84" y1="1287.48" x2="1727.23" y2="1190.95" stroke="#0C5F5C" stroke-width="1.45" opacity="0.66"></line><line x1="623.84" y1="1287.48" x2="1731.11" y2="1314.54" stroke="#0C5F5C" stroke-width="1.45" opacity="0.66"></line><line x1="623.84" y1="1287.48" x2="1721.19" y2="1437.8" stroke="#0C5F5C" stroke-width="1.45" opacity="0.66"></line><line x1="623.84" y1="1287.48" x2="1818.58" y2="1589.8" stroke="#0C5F5C" stroke-width="1.45" opacity="0.66"></line><line x1="623.84" y1="1287.48" x2="1660.62" y2="1677.18" stroke="#0C5F5C" stroke-width="1.45" opacity="0.66"></line><line x1="623.84" y1="1287.48" x2="1610.72" y2="1790.32" stroke="#0C5F5C" stroke-width="1.45" opacity="0.66"></line><line x1="623.84" y1="1287.48" x2="1548.52" y2="1897.19" stroke="#0C5F5C" stroke-width="1.45" opacity="0.66"></line><line x1="623.84" y1="1287.48" x2="1570.67" y2="2076.35" stroke="#0C5F5C" stroke-width="1.45" opacity="0.66"></line><circle cx="623.84" cy="1287.48" r="66.3" fill="none" stroke="#2BA49E" stroke-width="1.45" opacity="0.64"></circle><circle cx="623.84" cy="1287.48" r="133.38" fill="none" stroke="#2BA49E" stroke-width="1.45" opacity="0.64"></circle><circle cx="623.84" cy="1287.48" r="200.46" fill="none" stroke="#2BA49E" stroke-width="1.45" opacity="0.64"></circle><circle cx="623.84" cy="1287.48" r="267.54" fill="none" stroke="#2BA49E" stroke-width="1.45" opacity="0.64"></circle><circle cx="623.84" cy="1287.48" r="334.62" fill="none" stroke="#2BA49E" stroke-width="1.45" opacity="0.64"></circle><circle cx="623.84" cy="1287.48" r="401.7" fill="none" stroke="#2BA49E" stroke-width="1.45" opacity="0.64"></circle><circle cx="623.84" cy="1287.48" r="468.78" fill="none" stroke="#2BA49E" stroke-width="1.45" opacity="0.64"></circle><circle cx="623.84" cy="1287.48" r="535.86" fill="none" stroke="#2BA49E" stroke-width="1.45" opacity="0.64"></circle><circle cx="623.84" cy="1287.48" r="602.94" fill="none" stroke="#2BA49E" stroke-width="1.45" opacity="0.64"></circle><circle cx="623.84" cy="1287.48" r="670.02" fill="none" stroke="#2BA49E" stroke-width="1.45" opacity="0.64"></circle><circle cx="623.84" cy="1287.48" r="737.1" fill="none" stroke="#2BA49E" stroke-width="1.45" opacity="0.64"></circle><circle cx="623.84" cy="1287.48" r="804.18" fill="none" stroke="#2BA49E" stroke-width="1.45" opacity="0.64"></circle><g stroke="#F3F1EC" stroke-width="1.2" opacity="0.5"><line x1="243.36" y1="1185.53" x2="215.49" y2="1178.06"></line><line x1="252.76" y1="1155.35" x2="238.07" y2="1150.11"></line><line x1="264.56" y1="1126.01" x2="250.33" y2="1119.62"></line><line x1="278.66" y1="1097.72" x2="264.99" y2="1090.2"></line><line x1="294.99" y1="1070.65" x2="281.97" y2="1062.06"></line><line x1="313.44" y1="1044.97" x2="290.7" y2="1027.2"></line><line x1="333.89" y1="1020.86" x2="322.41" y2="1010.3"></line><line x1="356.21" y1="998.46" x2="345.61" y2="987.02"></line><line x1="380.25" y1="977.93" x2="370.6" y2="965.67"></line><line x1="405.86" y1="959.39" x2="397.23" y2="946.4"></line><line x1="432.87" y1="942.97" x2="418.88" y2="917.73"></line><line x1="461.12" y1="928.76" x2="454.67" y2="914.56"></line><line x1="490.41" y1="916.87" x2="485.13" y2="902.19"></line><line x1="520.56" y1="907.36" x2="516.47" y2="892.31"></line><line x1="551.38" y1="900.3" x2="548.51" y2="884.97"></line><line x1="582.67" y1="895.74" x2="579.65" y2="867.04"></line><line x1="614.22" y1="893.7" x2="613.84" y2="878.1"></line><line x1="645.83" y1="894.19" x2="646.7" y2="878.62"></line><line x1="677.3" y1="897.22" x2="679.42" y2="881.77"></line><line x1="708.42" y1="902.77" x2="711.77" y2="887.53"></line><line x1="739.01" y1="910.79" x2="747.44" y2="883.19"></line><line x1="768.84" y1="921.24" x2="774.59" y2="906.74"></line><line x1="797.75" y1="934.05" x2="804.64" y2="920.05"></line><line x1="825.53" y1="949.14" x2="833.52" y2="935.74"></line><line x1="852.02" y1="966.4" x2="861.06" y2="953.69"></line><line x1="877.03" y1="985.74" x2="895.58" y2="963.63"></line><line x1="900.42" y1="1007.01" x2="911.37" y2="995.91"></line><line x1="922.02" y1="1030.1" x2="933.83" y2="1019.9"></line><line x1="941.7" y1="1054.84" x2="954.29" y2="1045.63"></line><line x1="959.34" y1="1081.08" x2="972.62" y2="1072.91"></line><line x1="974.81" y1="1108.65" x2="1000.52" y2="1095.55"></line><line x1="988.02" y1="1137.38" x2="1002.44" y2="1131.43"></line><line x1="998.88" y1="1167.07" x2="1013.74" y2="1162.3"></line><line x1="1007.33" y1="1197.53" x2="1022.52" y2="1193.97"></line><line x1="1013.31" y1="1228.58" x2="1028.74" y2="1226.25"></line><line x1="1016.78" y1="1260" x2="1045.57" y2="1257.99"></line><line x1="1017.72" y1="1291.6" x2="1033.32" y2="1291.77"></line><line x1="1016.12" y1="1323.18" x2="1031.65" y2="1324.59"></line><line x1="1011.99" y1="1354.53" x2="1027.36" y2="1357.18"></line><line x1="1005.36" y1="1385.44" x2="1020.47" y2="1389.32"></line><line x1="996.28" y1="1415.72" x2="1023.57" y2="1425.12"></line><line x1="984.8" y1="1445.18" x2="999.09" y2="1451.42"></line></g><text x="211.92" y="1137.55" text-anchor="middle" class="data" font-size="11" fill="#F3F1EC" opacity="0.62">30°</text><text x="288.04" y="1005.71" text-anchor="middle" class="data" font-size="11" fill="#F3F1EC" opacity="0.62">45°</text><text x="404.66" y="907.85" text-anchor="middle" class="data" font-size="11" fill="#F3F1EC" opacity="0.62">60°</text><text x="547.72" y="855.78" text-anchor="middle" class="data" font-size="11" fill="#F3F1EC" opacity="0.62">75°</text><text x="699.96" y="855.78" text-anchor="middle" class="data" font-size="11" fill="#F3F1EC" opacity="0.62">90°</text><text x="843.02" y="907.85" text-anchor="middle" class="data" font-size="11" fill="#F3F1EC" opacity="0.62">120°</text></g></g>
      <g clip-path="url(#clip-main)"><g id="polar-sweep-pattern"><line x1="623.84" y1="1287.48" x2="-566.57" y2="968.51" stroke="#0C5F5C" stroke-width="1.45" opacity="0.66"></line><line x1="623.84" y1="1287.48" x2="-407.4" y2="883.34" stroke="#0C5F5C" stroke-width="1.45" opacity="0.66"></line><line x1="623.84" y1="1287.48" x2="-355.92" y2="770.91" stroke="#0C5F5C" stroke-width="1.45" opacity="0.66"></line><line x1="623.84" y1="1287.48" x2="-292.23" y2="664.92" stroke="#0C5F5C" stroke-width="1.45" opacity="0.66"></line><line x1="623.84" y1="1287.48" x2="-311.89" y2="485.47" stroke="#0C5F5C" stroke-width="1.45" opacity="0.66"></line><line x1="623.84" y1="1287.48" x2="-131.54" y2="477.43" stroke="#0C5F5C" stroke-width="1.45" opacity="0.66"></line><line x1="623.84" y1="1287.48" x2="-36.54" y2="398.28" stroke="#0C5F5C" stroke-width="1.45" opacity="0.66"></line><line x1="623.84" y1="1287.48" x2="66.7" y2="330.21" stroke="#0C5F5C" stroke-width="1.45" opacity="0.66"></line><line x1="623.84" y1="1287.48" x2="126.51" y2="159.88" stroke="#0C5F5C" stroke-width="1.45" opacity="0.66"></line><line x1="623.84" y1="1287.48" x2="292.62" y2="230.56" stroke="#0C5F5C" stroke-width="1.45" opacity="0.66"></line><line x1="623.84" y1="1287.48" x2="412.5" y2="200.23" stroke="#0C5F5C" stroke-width="1.45" opacity="0.66"></line><line x1="623.84" y1="1287.48" x2="535.01" y2="183.45" stroke="#0C5F5C" stroke-width="1.45" opacity="0.66"></line><line x1="623.84" y1="1287.48" x2="662.55" y2="55.69" stroke="#0C5F5C" stroke-width="1.45" opacity="0.66"></line><line x1="623.84" y1="1287.48" x2="781.82" y2="191.2" stroke="#0C5F5C" stroke-width="1.45" opacity="0.66"></line><line x1="623.84" y1="1287.48" x2="903.03" y2="215.65" stroke="#0C5F5C" stroke-width="1.45" opacity="0.66"></line><line x1="623.84" y1="1287.48" x2="1020.77" y2="253.45" stroke="#0C5F5C" stroke-width="1.45" opacity="0.66"></line><line x1="623.84" y1="1287.48" x2="1190.99" y2="193.34" stroke="#0C5F5C" stroke-width="1.45" opacity="0.66"></line><line x1="623.84" y1="1287.48" x2="1239.99" y2="367.08" stroke="#0C5F5C" stroke-width="1.45" opacity="0.66"></line><line x1="623.84" y1="1287.48" x2="1338.75" y2="441.5" stroke="#2BA49E" stroke-width="10" opacity="0.95"></line><line x1="623.84" y1="1287.48" x2="1428.59" y2="526.46" stroke="#0C5F5C" stroke-width="1.45" opacity="0.66"></line><line x1="623.84" y1="1287.48" x2="1608.08" y2="545.8" stroke="#0C5F5C" stroke-width="1.45" opacity="0.66"></line><line x1="623.84" y1="1287.48" x2="1577.2" y2="723.67" stroke="#0C5F5C" stroke-width="1.45" opacity="0.66"></line><line x1="623.84" y1="1287.48" x2="1634.1" y2="833.45" stroke="#0C5F5C" stroke-width="1.45" opacity="0.66"></line><line x1="623.84" y1="1287.48" x2="1678.42" y2="948.89" stroke="#0C5F5C" stroke-width="1.45" opacity="0.66"></line><line x1="623.84" y1="1287.48" x2="1831.93" y2="1043.89" stroke="#0C5F5C" stroke-width="1.45" opacity="0.66"></line><line x1="623.84" y1="1287.48" x2="1727.23" y2="1190.95" stroke="#0C5F5C" stroke-width="1.45" opacity="0.66"></line><line x1="623.84" y1="1287.48" x2="1731.11" y2="1314.54" stroke="#0C5F5C" stroke-width="1.45" opacity="0.66"></line><line x1="623.84" y1="1287.48" x2="1721.19" y2="1437.8" stroke="#0C5F5C" stroke-width="1.45" opacity="0.66"></line><line x1="623.84" y1="1287.48" x2="1818.58" y2="1589.8" stroke="#0C5F5C" stroke-width="1.45" opacity="0.66"></line><line x1="623.84" y1="1287.48" x2="1660.62" y2="1677.18" stroke="#0C5F5C" stroke-width="1.45" opacity="0.66"></line><line x1="623.84" y1="1287.48" x2="1610.72" y2="1790.32" stroke="#0C5F5C" stroke-width="1.45" opacity="0.66"></line><line x1="623.84" y1="1287.48" x2="1548.52" y2="1897.19" stroke="#0C5F5C" stroke-width="1.45" opacity="0.66"></line><line x1="623.84" y1="1287.48" x2="1570.67" y2="2076.35" stroke="#0C5F5C" stroke-width="1.45" opacity="0.66"></line><circle cx="623.84" cy="1287.48" r="66.3" fill="none" stroke="#2BA49E" stroke-width="1.45" opacity="0.64"></circle><circle cx="623.84" cy="1287.48" r="133.38" fill="none" stroke="#2BA49E" stroke-width="1.45" opacity="0.64"></circle><circle cx="623.84" cy="1287.48" r="200.46" fill="none" stroke="#2BA49E" stroke-width="1.45" opacity="0.64"></circle><circle cx="623.84" cy="1287.48" r="267.54" fill="none" stroke="#2BA49E" stroke-width="1.45" opacity="0.64"></circle><circle cx="623.84" cy="1287.48" r="334.62" fill="none" stroke="#2BA49E" stroke-width="1.45" opacity="0.64"></circle><circle cx="623.84" cy="1287.48" r="401.7" fill="none" stroke="#2BA49E" stroke-width="1.45" opacity="0.64"></circle><circle cx="623.84" cy="1287.48" r="468.78" fill="none" stroke="#2BA49E" stroke-width="1.45" opacity="0.64"></circle><circle cx="623.84" cy="1287.48" r="535.86" fill="none" stroke="#2BA49E" stroke-width="1.45" opacity="0.64"></circle><circle cx="623.84" cy="1287.48" r="602.94" fill="none" stroke="#2BA49E" stroke-width="1.45" opacity="0.64"></circle><circle cx="623.84" cy="1287.48" r="670.02" fill="none" stroke="#2BA49E" stroke-width="1.45" opacity="0.64"></circle><circle cx="623.84" cy="1287.48" r="737.1" fill="none" stroke="#2BA49E" stroke-width="1.45" opacity="0.64"></circle><circle cx="623.84" cy="1287.48" r="804.18" fill="none" stroke="#2BA49E" stroke-width="1.45" opacity="0.64"></circle><g stroke="#F3F1EC" stroke-width="1.2" opacity="0.5"><line x1="243.36" y1="1185.53" x2="215.49" y2="1178.06"></line><line x1="252.76" y1="1155.35" x2="238.07" y2="1150.11"></line><line x1="264.56" y1="1126.01" x2="250.33" y2="1119.62"></line><line x1="278.66" y1="1097.72" x2="264.99" y2="1090.2"></line><line x1="294.99" y1="1070.65" x2="281.97" y2="1062.06"></line><line x1="313.44" y1="1044.97" x2="290.7" y2="1027.2"></line><line x1="333.89" y1="1020.86" x2="322.41" y2="1010.3"></line><line x1="356.21" y1="998.46" x2="345.61" y2="987.02"></line><line x1="380.25" y1="977.93" x2="370.6" y2="965.67"></line><line x1="405.86" y1="959.39" x2="397.23" y2="946.4"></line><line x1="432.87" y1="942.97" x2="418.88" y2="917.73"></line><line x1="461.12" y1="928.76" x2="454.67" y2="914.56"></line><line x1="490.41" y1="916.87" x2="485.13" y2="902.19"></line><line x1="520.56" y1="907.36" x2="516.47" y2="892.31"></line><line x1="551.38" y1="900.3" x2="548.51" y2="884.97"></line><line x1="582.67" y1="895.74" x2="579.65" y2="867.04"></line><line x1="614.22" y1="893.7" x2="613.84" y2="878.1"></line><line x1="645.83" y1="894.19" x2="646.7" y2="878.62"></line><line x1="677.3" y1="897.22" x2="679.42" y2="881.77"></line><line x1="708.42" y1="902.77" x2="711.77" y2="887.53"></line><line x1="739.01" y1="910.79" x2="747.44" y2="883.19"></line><line x1="768.84" y1="921.24" x2="774.59" y2="906.74"></line><line x1="797.75" y1="934.05" x2="804.64" y2="920.05"></line><line x1="825.53" y1="949.14" x2="833.52" y2="935.74"></line><line x1="852.02" y1="966.4" x2="861.06" y2="953.69"></line><line x1="877.03" y1="985.74" x2="895.58" y2="963.63"></line><line x1="900.42" y1="1007.01" x2="911.37" y2="995.91"></line><line x1="922.02" y1="1030.1" x2="933.83" y2="1019.9"></line><line x1="941.7" y1="1054.84" x2="954.29" y2="1045.63"></line><line x1="959.34" y1="1081.08" x2="972.62" y2="1072.91"></line><line x1="974.81" y1="1108.65" x2="1000.52" y2="1095.55"></line><line x1="988.02" y1="1137.38" x2="1002.44" y2="1131.43"></line><line x1="998.88" y1="1167.07" x2="1013.74" y2="1162.3"></line><line x1="1007.33" y1="1197.53" x2="1022.52" y2="1193.97"></line><line x1="1013.31" y1="1228.58" x2="1028.74" y2="1226.25"></line><line x1="1016.78" y1="1260" x2="1045.57" y2="1257.99"></line><line x1="1017.72" y1="1291.6" x2="1033.32" y2="1291.77"></line><line x1="1016.12" y1="1323.18" x2="1031.65" y2="1324.59"></line><line x1="1011.99" y1="1354.53" x2="1027.36" y2="1357.18"></line><line x1="1005.36" y1="1385.44" x2="1020.47" y2="1389.32"></line><line x1="996.28" y1="1415.72" x2="1023.57" y2="1425.12"></line><line x1="984.8" y1="1445.18" x2="999.09" y2="1451.42"></line></g><text x="211.92" y="1137.55" text-anchor="middle" class="data" font-size="11" fill="#F3F1EC" opacity="0.62">30°</text><text x="288.04" y="1005.71" text-anchor="middle" class="data" font-size="11" fill="#F3F1EC" opacity="0.62">45°</text><text x="404.66" y="907.85" text-anchor="middle" class="data" font-size="11" fill="#F3F1EC" opacity="0.62">60°</text><text x="547.72" y="855.78" text-anchor="middle" class="data" font-size="11" fill="#F3F1EC" opacity="0.62">75°</text><text x="699.96" y="855.78" text-anchor="middle" class="data" font-size="11" fill="#F3F1EC" opacity="0.62">90°</text><text x="843.02" y="907.85" text-anchor="middle" class="data" font-size="11" fill="#F3F1EC" opacity="0.62">120°</text></g></g>
    </g>
  
    <g id="main-wordmark" clip-path="url(#clip-main)">
      <g transform="translate(536.72 1127.59) rotate(-95)">
        <rect x="-10" y="-10" width="749.3" height="127.45" rx="10" fill="#07100F"></rect>
        <image x="0" y="0" width="729.3" height="107.45" preserveAspectRatio="xMinYMin meet"></image>
      </g>
    </g>
  <image x="371.9" y="1217.28" width="290.16" height="42.75" preserveAspectRatio="xMinYMin meet" clip-path="url(#clip-hull)"></image>
  
    <g id="outlines-and-rig">
      <path d="M 290,1215.72 C 383.6,1211.04 531.8,1200.12 665.57,1206.36 C 793.1,1202.46 964.7,1198.56 1069.22,1190.76 L 1069.22,1242.24 C 1024.76,1273.44 964.7,1295.28 892.16,1306.2 C 812.6,1317.12 707.3,1332.72 613.7,1329.6 C 527.9,1334.28 418.7,1320.24 307.16,1298.4 L 290,1284.36 Z" fill="none" stroke="#12201E" stroke-width="4"></path>
      <path d="M 659.59,1137.98 L 578.01,205.54 L 504.19,212 L 328.87,1137.98 L 659.59,1137.98 Z" fill="none" stroke="#12201E" stroke-width="4"></path>
      <path d="M 656.38,414.79 L 992.16,1200.12 Q 851.6,1216.5 619.94,1150.2 C 644.9,916.2 658.16,643.2 656.38,414.79 Z" fill="none" stroke="#12201E" stroke-width="4"></path>
      <line x1="665.57" y1="1206.36" x2="577.33" y2="197.77" stroke="#AEB8B7" stroke-width="9.36" stroke-linecap="round"></line>
      <line x1="667.37" y1="1206.36" x2="579.13" y2="197.77" stroke="#D6DDDC" stroke-width="1.6" stroke-linecap="round" opacity="0.78"></line>
      <line x1="659.59" y1="1137.98" x2="328.87" y2="1137.98" stroke="#12201E" stroke-width="12" stroke-linecap="round"></line>
      <line x1="580.87" y1="238.18" x2="992.16" y2="1200.12" stroke="#12201E" stroke-width="2.5"></line>
      <line x1="988.1" y1="1208.7" x2="1082.87" y2="1208.7" stroke="#12201E" stroke-width="7" stroke-linecap="round"></line>
      <path d="M 527.9,1204.8 L 566.9,1173.6 C 641,1164.24 746.3,1164.24 851.6,1182.96 L 915.56,1200.12 Z" fill="#F3F1EC" stroke="#12201E" stroke-width="3"></path>
      <path d="M 319.64,1212.6 C 453.8,1204.8 570.8,1197 648.8,1203.24" fill="none" stroke="#12201E" stroke-width="2"></path>
      <path d="M 304.04,1256.28 C 449.9,1239.12 551.3,1260.96 648.8,1250.04 S 906.2,1228.2 1055.96,1234.44" fill="none" stroke="#2BA49E" stroke-width="2" opacity="0.72"></path>
      <g stroke="#AEB8B7" stroke-width="3">
        <line x1="603.92" y1="876.12" x2="669.44" y2="876.12"></line>
        <line x1="581.41" y1="565.31" x2="637.57" y2="565.31"></line>
      </g>
      <g fill="none" stroke="#12201E" stroke-width="1.7">
        <path d="M 304.04,1211.04 L 304.04,1164.24 M 999.8,1197 L 999.8,1148.64"></path>
        <path d="M 304.04,1165.8 C 524,1156.44 812.6,1154.1 999.8,1150.2"></path>
      </g>
    </g>
  
</svg>